<svg width="25" height="37" viewBox="0 0 25 37" fill="none" xmlns="http://www.w3.org/2000/svg">
<path d="M11.2789 36.6364V0.272725H13.6084V36.6364H11.2789ZM16.8897 12.6307C16.795 11.589 16.3736 10.7794 15.6255 10.2017C14.8869 9.61458 13.831 9.32102 12.4579 9.32102C11.5488 9.32102 10.7912 9.43939 10.1852 9.67614C9.57909 9.91288 9.12455 10.2396 8.82152 10.6562C8.51849 11.0634 8.36224 11.5322 8.35277 12.0625C8.33383 12.4981 8.41905 12.8816 8.60845 13.2131C8.80731 13.5445 9.0914 13.8381 9.46072 14.0938C9.83951 14.34 10.2941 14.5578 10.8244 14.7472C11.3547 14.9366 11.9513 15.1023 12.6141 15.2443L15.1141 15.8125C16.5535 16.125 17.8225 16.5417 18.9209 17.0625C20.0289 17.5833 20.9569 18.2036 21.705 18.9233C22.4626 19.643 23.0355 20.4716 23.4238 21.4091C23.812 22.3466 24.0109 23.3977 24.0204 24.5625C24.0109 26.3996 23.5469 27.9763 22.6283 29.2926C21.7098 30.6089 20.3888 31.6174 18.6653 32.3182C16.9513 33.0189 14.8821 33.3693 12.4579 33.3693C10.0242 33.3693 7.90296 33.0047 6.09424 32.2756C4.28553 31.5464 2.87928 30.4384 1.87549 28.9517C0.871706 27.465 0.355607 25.5852 0.327198 23.3125H7.06015C7.11697 24.25 7.36792 25.0312 7.81299 25.6562C8.25807 26.2812 8.86887 26.7547 9.64538 27.0767C10.4314 27.3987 11.3405 27.5597 12.3727 27.5597C13.3196 27.5597 14.1245 27.4318 14.7874 27.1761C15.4598 26.9205 15.9759 26.5653 16.3357 26.1108C16.6956 25.6562 16.8802 25.1354 16.8897 24.5483C16.8802 23.9991 16.7098 23.5303 16.3783 23.142C16.0469 22.7443 15.5355 22.4034 14.8442 22.1193C14.1624 21.8258 13.2912 21.5559 12.2306 21.3097L9.19083 20.5994C6.6719 20.0218 4.68799 19.089 3.23913 17.8011C1.79027 16.5038 1.07057 14.7519 1.08004 12.5455C1.07057 10.7462 1.55352 9.16951 2.5289 7.81534C3.50428 6.46117 4.85371 5.4053 6.5772 4.64773C8.30068 3.89015 10.2656 3.51136 12.4721 3.51136C14.7259 3.51136 16.6814 3.89489 18.3386 4.66193C20.0052 5.41951 21.2978 6.48485 22.2164 7.85795C23.135 9.23106 23.6037 10.822 23.6227 12.6307H16.8897Z" fill="white" fill-opacity="0.4"/>
</svg>
